<?xml version="1.0" standalone="no"?>
<!DOCTYPE svg PUBLIC "-//W3C//DTD SVG 20010904//EN"
 "http://www.w3.org/TR/2001/REC-SVG-20010904/DTD/svg10.dtd">
<svg version="1.0" xmlns="http://www.w3.org/2000/svg"
 width="180.000000pt" height="180.000000pt" viewBox="0 0 180.000000 180.000000"
 preserveAspectRatio="xMidYMid meet">
<metadata>
Created by potrace 1.14, written by Peter Selinger 2001-2017
</metadata>
<g transform="translate(0.000000,180.000000) scale(0.100000,-0.100000)"
fill="#000000" stroke="none">
<path d="M200 1393 c-1 -199 0 -1185 0 -1205 0 -5 67 -8 149 -8 l149 0 0 720
-1 720 -148 0 -149 0 0 -227z"/>
<path d="M760 1055 c-1 -311 -1 -603 -1 -650 0 -47 0 -116 1 -155 l0 -70 149
0 149 0 0 720 0 720 -149 0 -149 0 0 -565z"/>
<path d="M1310 900 l0 -720 149 0 149 0 0 720 0 720 -149 0 -149 0 0 -720z"/>
</g>
</svg>
