<?xml version="1.0" standalone="no"?>
<!DOCTYPE svg PUBLIC "-//W3C//DTD SVG 20010904//EN"
 "http://www.w3.org/TR/2001/REC-SVG-20010904/DTD/svg10.dtd">
<svg version="1.0" xmlns="http://www.w3.org/2000/svg"
 width="180.000000pt" height="180.000000pt" viewBox="0 0 180.000000 180.000000"
 preserveAspectRatio="xMidYMid meet">
<metadata>
Created by potrace 1.14, written by Peter Selinger 2001-2017
</metadata>
<g transform="translate(0.000000,180.000000) scale(0.100000,-0.100000)"
fill="#000000" stroke="none">
<path d="M116 1780 c-21 -11 -49 -32 -63 -47 -56 -64 -54 -33 -51 -848 l3
-751 25 -37 c14 -21 43 -50 64 -65 l39 -27 756 -2 c742 -2 757 -2 798 18 49
24 86 69 103 125 8 28 10 241 8 779 -3 705 -4 742 -22 770 -28 44 -73 81 -116
94 -27 8 -251 11 -772 11 -700 -1 -735 -2 -772 -20z"/>
</g>
</svg>
